<?xml version="1.0" encoding="UTF-8" standalone="no"?>
<svg
   width="1496.24"
   height="512"
   viewBox="0 0 1496.24 512"
   fill="none"
   version="1.1"
   id="svg3"
   sodipodi:docname="logo.svg"
   inkscape:version="1.4.3 (0d15f75, 2025-12-25)"
   xmlns:inkscape="http://www.inkscape.org/namespaces/inkscape"
   xmlns:sodipodi="http://sodipodi.sourceforge.net/DTD/sodipodi-0.dtd"
   xmlns="http://www.w3.org/2000/svg"
   xmlns:svg="http://www.w3.org/2000/svg">
  <defs
     id="defs3" />
  <sodipodi:namedview
     id="namedview3"
     pagecolor="#ffffff"
     bordercolor="#000000"
     borderopacity="0.25"
     inkscape:showpageshadow="2"
     inkscape:pageopacity="0.0"
     inkscape:pagecheckerboard="0"
     inkscape:deskcolor="#d1d1d1"
     inkscape:zoom="0.32669011"
     inkscape:cx="1242.7679"
     inkscape:cy="62.750598"
     inkscape:window-width="1920"
     inkscape:window-height="1009"
     inkscape:window-x="1072"
     inkscape:window-y="-8"
     inkscape:window-maximized="1"
     inkscape:current-layer="svg3" />
  <path
     d="M 256,512 C 397.385,512 512,397.385 512,256 512,114.615 397.385,0 256,0 114.615,0 0,114.615 0,256 0,397.385 114.615,512 256,512 Z"
     fill="#2781f6"
     id="path1"
     sodipodi:insensitive="true" />
  <path
     d="M 367,376 H 247.99 C 182.388,376 129,322.608 129,256.989 129,191.392 182.388,138 247.992,138 313.612,138 367,191.392 367,256.989 Z"
     fill="#ffffff"
     stroke="#ffffff"
     stroke-width="6"
     id="path2"
     sodipodi:insensitive="true" />
  <path
     d="m 707.875,436.625 c -24.375,0 -45.859,-5.469 -64.453,-16.406 -18.438,-10.938 -32.813,-26.094 -43.125,-45.469 -10.156,-19.375 -15.235,-41.797 -15.235,-67.266 0,-25.468 5.079,-47.968 15.235,-67.5 10.312,-19.531 24.687,-34.765 43.125,-45.703 18.594,-10.937 40.078,-16.406 64.453,-16.406 15.937,0 30.625,2.422 44.063,7.266 13.593,4.687 25.39,11.328 35.39,19.921 10.156,8.594 18.281,18.75 24.375,30.469 6.094,11.719 9.766,24.688 11.016,38.907 h -63.281 c -0.938,-6.563 -2.813,-12.422 -5.626,-17.579 -2.656,-5.312 -6.171,-9.843 -10.546,-13.593 -4.219,-3.907 -9.219,-6.875 -15,-8.907 -5.625,-2.187 -12.11,-3.281 -19.454,-3.281 -12.031,0 -22.421,3.125 -31.171,9.375 -8.75,6.25 -15.469,15.078 -20.157,26.485 -4.531,11.406 -6.796,24.921 -6.796,40.546 0,15.469 2.265,28.907 6.796,40.313 4.688,11.406 11.328,20.234 19.922,26.484 8.75,6.094 19.219,9.141 31.406,9.141 7.344,0 13.829,-1.016 19.454,-3.047 5.625,-2.031 10.468,-4.922 14.531,-8.672 4.219,-3.906 7.656,-8.515 10.312,-13.828 2.657,-5.469 4.61,-11.563 5.86,-18.281 h 63.75 c -0.938,14.062 -4.453,27.031 -10.547,38.906 -5.938,11.719 -13.984,21.953 -24.141,30.703 -10.156,8.594 -22.031,15.313 -35.625,20.156 -13.594,4.844 -28.437,7.266 -44.531,7.266 z M 911.209,292.484 V 431 H 846.053 V 81.781 h 65.156 V 247.25 h -12.89 c 7.969,-21.875 19.14,-38.828 33.515,-50.859 14.532,-12.032 32.891,-18.047 55.079,-18.047 17.497,0 32.737,3.828 45.707,11.484 13.12,7.5 23.36,18.516 30.7,33.047 7.34,14.531 11.01,32.266 11.01,53.203 V 431 h -65.15 V 287.562 c 0,-17.343 -4.14,-30.468 -12.424,-39.374 -8.125,-8.907 -19.687,-13.36 -34.687,-13.36 -10,0 -18.828,2.031 -26.485,6.094 -7.656,4.062 -13.671,10.312 -18.046,18.75 -4.219,8.437 -6.329,19.375 -6.329,32.812 z m 274.581,142.5 c -16.4,0 -31.01,-2.734 -43.82,-8.203 -12.82,-5.469 -22.97,-13.672 -30.47,-24.609 -7.35,-10.938 -11.02,-24.61 -11.02,-41.016 0,-14.062 2.58,-25.703 7.74,-34.922 5.31,-9.375 12.42,-16.796 21.32,-22.265 9.07,-5.625 19.46,-9.844 31.18,-12.657 11.71,-2.968 23.9,-5.156 36.56,-6.562 15.31,-1.562 27.42,-2.969 36.33,-4.219 8.9,-1.406 15.31,-3.437 19.22,-6.093 3.9,-2.657 5.85,-6.719 5.85,-12.188 v -1.641 c 0,-6.562 -1.71,-12.265 -5.15,-17.109 -3.44,-5 -8.28,-8.906 -14.53,-11.719 -6.25,-2.812 -13.83,-4.219 -22.74,-4.219 -8.9,0 -16.79,1.407 -23.67,4.219 -6.72,2.813 -12.11,6.797 -16.17,11.953 -3.91,5 -6.17,10.86 -6.8,17.578 h -61.64 c 1.1,-16.874 6.1,-31.484 15,-43.828 9.06,-12.343 21.56,-21.953 37.5,-28.828 16.1,-6.875 35.24,-10.312 57.42,-10.312 16.57,0 31.33,1.953 44.3,5.859 13.13,3.906 24.14,9.531 33.05,16.875 9.06,7.344 15.93,16.25 20.62,26.719 4.69,10.312 7.03,21.953 7.03,34.922 V 431 h -63.51 v -34.922 h -0.94 c -4.22,7.813 -9.53,14.688 -15.94,20.625 -6.25,5.781 -14.06,10.313 -23.43,13.594 -9.22,3.125 -20.32,4.687 -33.29,4.687 z m 17.35,-46.172 c 11.72,0 21.72,-2.109 30,-6.328 8.44,-4.375 14.84,-10.234 19.22,-17.578 4.53,-7.344 6.79,-15.625 6.79,-24.844 v -25.781 c -2.03,1.25 -4.76,2.422 -8.2,3.516 -3.28,0.937 -7.27,1.875 -11.95,2.812 -4.53,0.938 -9.53,1.875 -15,2.813 -5.32,0.937 -10.86,1.797 -16.64,2.578 -8.13,1.25 -15.55,3.203 -22.27,5.859 -6.72,2.657 -12.11,6.25 -16.17,10.782 -3.91,4.375 -5.86,10.078 -5.86,17.109 0,5.938 1.64,11.172 4.92,15.703 3.44,4.375 8.13,7.735 14.06,10.078 5.94,2.188 12.97,3.281 21.1,3.281 z M 1496.24,183.5 v 51.562 H 1337.57 V 183.5 Z M 1380.69,116 h 64.92 v 240.703 c 0,8.594 1.72,14.531 5.16,17.813 3.44,3.281 9.92,4.922 19.45,4.922 h 13.6 12.42 V 431 h -17.11 -21.33 c -26.41,0 -45.86,-5.234 -58.36,-15.703 -12.5,-10.469 -18.75,-26.641 -18.75,-48.516 z"
     fill="#040101"
     id="path3"
     sodipodi:nodetypes="sccsccsccscccccsscsccsscccccccsscccccccscssccscsccssccsccccccssccsccccccscccsccccccssccscccccccsccscccccccscsccccsssccc" />
</svg>
